<?xml version="1.0" encoding="UTF-8"?>
<svg id="Capa_1" data-name="Capa 1" xmlns="http://www.w3.org/2000/svg" viewBox="0 0 219.29 219.22">
  <path d="M97.45,158.01c5.96,6.9,12.8,11.26,21.25,12.65,14.06,2.31,26.39-1.96,37.17-10.78,14.1-11.54,21.49-26.81,23.62-44.72,1.97-16.55-.93-32.16-10.15-46.23-10.45-15.95-25.54-25.03-44.11-28.29-19.84-3.49-38.72-.8-55.98,10.17-24.2,15.39-35.27,46.02-26.22,72.48,1.92,5.62,4.81,10.68,9.5,14.5,3.01,2.44,6.44,3.71,10.38,3.33,1.46-.14,2.83-.51,4.03-1.4,2.44-1.81,2.52-2.54.67-4.97-6.61-8.65-8.83-18.63-8.27-29.24.87-16.38,7.55-29.64,22.04-38.16,11.27-6.62,23.65-8.42,36.38-6.4,23.09,3.65,37.26,20.32,37.79,43.77.28,12.4-1.88,24.22-9.21,34.53-6.56,9.22-15.35,14.21-27.04,12.7-11-1.42-17.26-10.26-14.94-21.19,1.52-7.14,4.14-13.97,6.1-20.99,1.26-4.51,2.19-9.07,1.46-13.8-.9-5.85-3.39-10.63-9.47-12.32-6.44-1.79-12.13-.07-16.63,4.91-4.67,5.17-6.2,11.56-6.59,18.3-.38,6.6.72,13.02,2.52,19.34.36,1.26.43,2.41.13,3.72-3.92,16.92-7.91,33.83-11.59,50.81-1.97,9.08-2.38,18.33-1.51,27.61.08.82.33,1.66-.11,2.66-5.5-2.03-10.7-4.69-15.65-7.77-26.78-16.66-43.76-40.38-50.57-71.18C-7.89,85.33,15.29,35.64,57.59,13.17,75.96,3.41,95.5-1.03,116.21.2c45.08,2.68,83.77,32.74,97.73,75.65,17.29,53.14-8.57,111.3-59.72,133.85-24.26,10.69-49.29,12.35-74.85,5.17-.95-.27-2.71-.13-1.36-2.15,8.2-12.24,12.67-25.96,15.86-40.19,1.05-4.7,2.3-9.35,3.59-14.51Z" style="fill: #eee; stroke-width: 0px;"/>
</svg>