<svg xmlns="http://www.w3.org/2000/svg" version="1.1" xmlns:xlink="http://www.w3.org/1999/xlink" width="99.24" height="142.45"><svg id="SvgjsSvg1005" data-name="Capa 1" xmlns="http://www.w3.org/2000/svg" viewBox="0 0 99.24 142.45">
  <defs>
    <style>
      .cls-1 {
        fill: #263;
        stroke-width: 0px;
      }
    </style>
  </defs>
  <path class="cls-1" d="M69.6,66.78c-.81-3.86-2.04-7.41-2.16-11-.12-3.62-2.17-4.62-4.9-5.05-6.12-.97-12.15-3.07-18.51-1.7-.43.09-1.03-.59-2.6-1.55,10.37-.28,19.56-1.11,28.59,2.43.25-2.1.62-3.74.62-5.38-.01-4.09,1.29-6.82,5.35-8.88,5.6-2.84,8-8.74,6.8-13.74-1.29-5.37-5.97-9.01-12.63-9.37-2.55-.14-4.28-1.14-6.08-2.81-8.75-8.15-23.18-7.8-31.63.75-1.34,1.35-2.62,2.24-4.53,2.67-5.49,1.23-8.83,5.17-9.18,10.36-.31,4.59,2.63,9.62,7.56,11.2,3.89,1.24,5.95,2.26,4.16,6.93-1.13,2.95,1,6.65-1.46,10.64-1.31-3.63-1.14-6.62-.64-9.34.42-2.27.12-2.92-2.02-3.88-8.64-3.87-11.78-8.54-11.13-16.28.65-7.75,5.02-12.42,12.59-14.05,1.23-.26,1.99-.95,2.86-1.77,9.61-9.05,25.21-9.31,34.94-.48,1.58,1.43,2.99,2.11,5.15,2.25,8.13.53,14.27,5.49,15.71,12.29,1.54,7.26-1.55,13.3-9.3,17.41-2.05,1.09-2.98,2.26-2.91,4.55.06,1.98-.12,4-.47,5.96-.6,3.45-.79,6.09,3.57,7.7,3.8,1.41,4.37,6.72,1.91,10.39-.22.33-.63.53-.96.79-.3-.47-1.3-.41-.91-1.43.4-1.06.79-2.19.82-3.3.07-2.18-.93-4.07-3.05-4.64-2.79-.74-2.36,2.02-3.18,3.44-.82,1.42-.5,3.33-2.42,4.9Z"></path>
  <path class="cls-1" d="M35.07,96.22c.55,2.34-.14,3.54-2.76,3.83-4.46.49-8.9,1.22-13.31,2.04-7.98,1.47-16.11,12.08-16.07,20.1.03,6.23,2.27,12.32,1.03,18.61-.07.35.48.81,1.01,1.65,0-.86.05-1.03,0-1.13-6.15-10.19-5.83-20.88-3.05-32.21,1.63,1.07.3,2.73,2.29,3.38,2.85-12.32,13.06-13.55,23.15-14.97,2.62-.37,5.22-.8,7.83-1.21l-.1-.1Z"></path>
  <path class="cls-1" d="M27.6,78.32c12.79-9.03,25.97-5.64,38.61-.09-2.86,4.04-11.07,5.1-16.33.93-3.48-2.75-6.04-2.99-9.48.1-4.3,3.85-8.88,3.07-12.8-.94Z"></path>
  <path class="cls-1" d="M68.27,35.6c-9.13-3.79-18.55-4.23-28.3-3.19-7.39.79-11.59-5.3-9.35-13.21.61,2.15.94,4.02,1.65,5.72,2.3,5.47,4.68,6.54,10.33,5.12,1.75-.44,3.6-.61,5.41-.73,1.8-.12,3.62-.03,5.62-.03-.87-5.82-.83-11.33,3.89-15.65-1.19,5.78-3.91,12.12.87,16.74,2.26,2.19,7.35,4.29,10.79-.38,2.06,2.88-2.51,3.33-1.01,5.5l.1.1Z"></path>
  <path class="cls-1" d="M44.21,103.38c1.8-.7,3.95-2.03,5.44-.33,1.56,1.78,1.21,4.47.54,6.63-.72,2.3-2.82,1.44-4.64,1.4-2.87-.07-4.88,2.38-7.55,3.1-4.6,1.24-8.66.85-12.01-3.17,1.67-1.57,2.81.13,4.06.18.98.04,2.72.8,2.85-.81.14-1.63-1.94-.56-3.15-1.94,5.03-.14,8.56-5.45,14.04-2.58.2.11.71-1.59.48-2.57,0,0-.07.07-.07.07Z"></path>
  <path class="cls-1" d="M71.91,86.75c3.12,7.18-2.14,9.88-5.55,13.85-4.65,5.43-9.72,1.32-14.83,1.38,7.79-3.64,14.57-8.5,20.38-15.23Z"></path>
  <path class="cls-1" d="M74.94,111.48c-9.29,5.69-17.52,5.12-21.02-.68-1.79-2.97,2.49-.01,1.33-2.29-.17-.05-.92-.22-1.65-.48-.84-.3-2.23-.18-1.95-1.6.21-1.1.73-2.09,2.28-2.14,3.47-.12,6.63.72,9.24,2.95,3.14,2.68,6.59,4.36,11.77,4.24Z"></path>
  <path class="cls-1" d="M40.06,89.09c6.35,2.6,12.23,4.69,18.4,1.44,5.72-3.02,9.29-7.78,11.53-13.82,2.1,4.76-2.67,12.43-9.92,16.21-8.07,4.22-16.03,2.95-20.01-3.84Z"></path>
  <path class="cls-1" d="M99.24,104.82c-8.73-2.02-16.84-5.73-25.64-7.63.57-1.62,1.58-2.98,3.11-2.48,7.85,2.58,15.72,5.18,22.53,10.11Z"></path>
  <path class="cls-1" d="M35.17,96.32c1.18-2.06-.55-4.4.82-7.02,2.7,3.86,5.27,7.49,8.97,9.95,3.24,2.16-2.94,2.34-.74,4.14,0,0,.07-.07.07-.07-3.22.26-5.59-.73-6.78-4.05-.41-1.15-.58-2.87-2.43-3.03,0,0,.1.09.1.09Z"></path>
</svg><style>@media (prefers-color-scheme: light) { :root { filter: none; } }
@media (prefers-color-scheme: dark) { :root { filter: contrast(0.8333333333333334) brightness(1.7); } }
</style></svg>